<svg width="123" height="63" viewBox="0 0 123 63" fill="none" xmlns="http://www.w3.org/2000/svg">
<rect width="15" height="15" rx="7.5" fill="#C90C0F"/>
<rect x="18" y="1" width="13" height="13" rx="1" fill="#359830"/>
<rect x="34" y="1" width="13" height="13" rx="1" fill="#359830"/>
<rect x="2" y="18" width="13" height="13" rx="1" fill="#359830"/>
<rect x="18" y="18" width="13" height="13" rx="1" fill="#359830"/>
<rect x="2" y="34" width="13" height="13" rx="1" fill="#359830"/>
<rect x="18" y="34" width="13" height="13" rx="1" fill="#359830"/>
<rect x="34" y="34" width="13" height="13" rx="1" fill="#359830"/>
<rect x="2" y="50" width="13" height="13" rx="1" fill="#359830"/>
<rect x="18" y="50" width="13" height="13" rx="1" fill="#359830"/>
<path d="M60.0021 12.2727V21H58.157V12.2727H60.0021ZM68.82 12.2727V21H67.2262L63.4293 15.5071H63.3654V21H61.5202V12.2727H63.1396L66.9066 17.7614H66.9833V12.2727H68.82ZM75.0788 14.7827C75.0447 14.4389 74.8984 14.1719 74.6399 13.9815C74.3814 13.7912 74.0305 13.696 73.5874 13.696C73.2862 13.696 73.032 13.7386 72.8246 13.8239C72.6172 13.9062 72.4581 14.0213 72.3473 14.169C72.2393 14.3168 72.1854 14.4844 72.1854 14.6719C72.1797 14.8281 72.2124 14.9645 72.2834 15.081C72.3572 15.1974 72.4581 15.2983 72.5859 15.3835C72.7138 15.4659 72.8615 15.5384 73.0291 15.6009C73.1967 15.6605 73.3757 15.7116 73.5661 15.7543L74.3501 15.9418C74.7308 16.027 75.0803 16.1406 75.3984 16.2827C75.7166 16.4247 75.9922 16.5994 76.2251 16.8068C76.4581 17.0142 76.6385 17.2585 76.7663 17.5398C76.897 17.821 76.9638 18.1435 76.9666 18.5071C76.9638 19.0412 76.8274 19.5043 76.5575 19.8963C76.2905 20.2855 75.9041 20.5881 75.3984 20.804C74.8956 21.017 74.2891 21.1236 73.5788 21.1236C72.8743 21.1236 72.2607 21.0156 71.7379 20.7997C71.218 20.5838 70.8118 20.2642 70.5192 19.8409C70.2294 19.4148 70.0774 18.8878 70.0632 18.2599H71.8487C71.8686 18.5526 71.9524 18.7969 72.1001 18.9929C72.2507 19.1861 72.451 19.3324 72.701 19.4318C72.9538 19.5284 73.2393 19.5767 73.5575 19.5767C73.87 19.5767 74.1413 19.5312 74.3714 19.4403C74.6044 19.3494 74.7848 19.223 74.9126 19.0611C75.0405 18.8991 75.1044 18.7131 75.1044 18.5028C75.1044 18.3068 75.0462 18.142 74.9297 18.0085C74.8161 17.875 74.6484 17.7614 74.4268 17.6676C74.2081 17.5739 73.9396 17.4886 73.6214 17.4119L72.6712 17.1733C71.9354 16.9943 71.3544 16.7145 70.9283 16.3338C70.5021 15.9531 70.2905 15.4403 70.2933 14.7955C70.2905 14.267 70.4311 13.8054 70.7152 13.4105C71.0021 13.0156 71.3956 12.7074 71.8956 12.4858C72.3956 12.2642 72.9638 12.1534 73.6001 12.1534C74.2479 12.1534 74.8132 12.2642 75.2962 12.4858C75.782 12.7074 76.1598 13.0156 76.4297 13.4105C76.6996 13.8054 76.8388 14.2628 76.8473 14.7827H75.0788ZM77.8754 13.794V12.2727H85.043V13.794H82.3711V21H80.5472V13.794H77.8754ZM88.0685 12.2727V21H86.2234V12.2727H88.0685ZM89.2543 13.794V12.2727H96.4219V13.794H93.75V21H91.9261V13.794H89.2543ZM102.993 12.2727H104.838V17.9403C104.838 18.5767 104.686 19.1335 104.382 19.6108C104.081 20.0881 103.659 20.4602 103.116 20.7273C102.574 20.9915 101.942 21.1236 101.22 21.1236C100.496 21.1236 99.8622 20.9915 99.3196 20.7273C98.777 20.4602 98.3551 20.0881 98.054 19.6108C97.7528 19.1335 97.6023 18.5767 97.6023 17.9403V12.2727H99.4474V17.7827C99.4474 18.1151 99.5199 18.4105 99.6648 18.669C99.8125 18.9276 100.02 19.1307 100.287 19.2784C100.554 19.4261 100.865 19.5 101.22 19.5C101.578 19.5 101.889 19.4261 102.153 19.2784C102.42 19.1307 102.626 18.9276 102.771 18.669C102.919 18.4105 102.993 18.1151 102.993 17.7827V12.2727ZM106.024 13.794V12.2727H113.191V13.794H110.52V21H108.696V13.794H106.024ZM121.993 16.6364C121.993 17.5881 121.813 18.3977 121.452 19.0653C121.094 19.733 120.605 20.2429 119.986 20.5952C119.37 20.9446 118.676 21.1193 117.907 21.1193C117.131 21.1193 116.435 20.9432 115.819 20.5909C115.202 20.2386 114.715 19.7287 114.357 19.0611C113.999 18.3935 113.82 17.5852 113.82 16.6364C113.82 15.6847 113.999 14.875 114.357 14.2074C114.715 13.5398 115.202 13.0312 115.819 12.6818C116.435 12.3295 117.131 12.1534 117.907 12.1534C118.676 12.1534 119.37 12.3295 119.986 12.6818C120.605 13.0312 121.094 13.5398 121.452 14.2074C121.813 14.875 121.993 15.6847 121.993 16.6364ZM120.123 16.6364C120.123 16.0199 120.03 15.5 119.846 15.0767C119.664 14.6534 119.407 14.3324 119.074 14.1136C118.742 13.8949 118.353 13.7855 117.907 13.7855C117.461 13.7855 117.071 13.8949 116.739 14.1136C116.407 14.3324 116.148 14.6534 115.963 15.0767C115.782 15.5 115.691 16.0199 115.691 16.6364C115.691 17.2528 115.782 17.7727 115.963 18.196C116.148 18.6193 116.407 18.9403 116.739 19.1591C117.071 19.3778 117.461 19.4872 117.907 19.4872C118.353 19.4872 118.742 19.3778 119.074 19.1591C119.407 18.9403 119.664 18.6193 119.846 18.196C120.03 17.7727 120.123 17.2528 120.123 16.6364ZM63.7058 36V27.2727H69.4842V28.794H65.551V30.8736H69.1007V32.3949H65.551V36H63.7058ZM70.7253 36V27.2727H76.606V28.794H72.5705V30.8736H76.3034V32.3949H72.5705V34.4787H76.623V36H70.7253ZM81.1667 36H78.073V27.2727H81.1923C82.0701 27.2727 82.8258 27.4474 83.4593 27.7969C84.0929 28.1435 84.5801 28.642 84.921 29.2926C85.2647 29.9432 85.4366 30.7216 85.4366 31.6278C85.4366 32.5369 85.2647 33.3182 84.921 33.9716C84.5801 34.625 84.09 35.1264 83.4508 35.4759C82.8145 35.8253 82.0531 36 81.1667 36ZM79.9181 34.419H81.09C81.6355 34.419 82.0943 34.3224 82.4664 34.1293C82.8414 33.9332 83.1227 33.6307 83.3102 33.2216C83.5005 32.8097 83.5957 32.2784 83.5957 31.6278C83.5957 30.983 83.5005 30.456 83.3102 30.0469C83.1227 29.6378 82.8429 29.3366 82.4707 29.1435C82.0985 28.9503 81.6397 28.8537 81.0943 28.8537H79.9181V34.419ZM86.8034 36V27.2727H92.6841V28.794H88.6486V30.8736H92.3816V32.3949H88.6486V34.4787H92.7012V36H86.8034ZM94.1511 36V27.2727H97.5943C98.2534 27.2727 98.8159 27.3906 99.2818 27.6264C99.7505 27.8594 100.107 28.1903 100.351 28.6193C100.599 29.0455 100.722 29.5469 100.722 30.1236C100.722 30.7031 100.597 31.2017 100.347 31.6193C100.097 32.0341 99.7349 32.3523 99.2605 32.5739C98.7889 32.7955 98.2179 32.9062 97.5474 32.9062H95.242V31.4233H97.2491C97.6014 31.4233 97.894 31.375 98.127 31.2784C98.3599 31.1818 98.5332 31.0369 98.6468 30.8438C98.7633 30.6506 98.8216 30.4105 98.8216 30.1236C98.8216 29.8338 98.7633 29.5895 98.6468 29.3906C98.5332 29.1918 98.3585 29.0412 98.1227 28.9389C97.8897 28.8338 97.5957 28.7812 97.2406 28.7812H95.9963V36H94.1511ZM98.8642 32.0284L101.033 36H98.9963L96.8741 32.0284H98.8642ZM103.53 36H101.553L104.566 27.2727H106.944L109.952 36H107.975L105.789 29.267H105.721L103.53 36ZM103.407 32.5696H108.077V34.0099H103.407V32.5696ZM111.003 36V27.2727H112.848V34.4787H116.589V36H111.003ZM63.1342 43.2102V42.2727H69.6797V43.2102H66.9354V51H65.8786V43.2102H63.1342ZM72.8842 51.1364C72.2933 51.1364 71.7749 50.9957 71.3288 50.7145C70.8857 50.4332 70.5391 50.0398 70.2891 49.5341C70.0419 49.0284 69.9183 48.4375 69.9183 47.7614C69.9183 47.0795 70.0419 46.4844 70.2891 45.9759C70.5391 45.4673 70.8857 45.0724 71.3288 44.7912C71.7749 44.5099 72.2933 44.3693 72.8842 44.3693C73.4751 44.3693 73.9922 44.5099 74.4354 44.7912C74.8814 45.0724 75.228 45.4673 75.4751 45.9759C75.7251 46.4844 75.8501 47.0795 75.8501 47.7614C75.8501 48.4375 75.7251 49.0284 75.4751 49.5341C75.228 50.0398 74.8814 50.4332 74.4354 50.7145C73.9922 50.9957 73.4751 51.1364 72.8842 51.1364ZM72.8842 50.233C73.3331 50.233 73.7024 50.1179 73.9922 49.8878C74.282 49.6577 74.4964 49.3551 74.6357 48.9801C74.7749 48.6051 74.8445 48.1989 74.8445 47.7614C74.8445 47.3239 74.7749 46.9162 74.6357 46.5384C74.4964 46.1605 74.282 45.8551 73.9922 45.6222C73.7024 45.3892 73.3331 45.2727 72.8842 45.2727C72.4354 45.2727 72.0661 45.3892 71.7763 45.6222C71.4865 45.8551 71.272 46.1605 71.1328 46.5384C70.9936 46.9162 70.924 47.3239 70.924 47.7614C70.924 48.1989 70.9936 48.6051 71.1328 48.9801C71.272 49.3551 71.4865 49.6577 71.7763 49.8878C72.0661 50.1179 72.4354 50.233 72.8842 50.233ZM80.0444 51.1364C79.4308 51.1364 78.9023 50.9915 78.4592 50.7017C78.016 50.4119 77.6751 50.0128 77.4364 49.5043C77.1978 48.9957 77.0785 48.4148 77.0785 47.7614C77.0785 47.0966 77.2006 46.5099 77.445 46.0014C77.6921 45.4901 78.0359 45.0909 78.4762 44.804C78.9194 44.5142 79.4364 44.3693 80.0273 44.3693C80.4876 44.3693 80.9023 44.4545 81.2717 44.625C81.641 44.7955 81.9435 45.0341 82.1793 45.3409C82.4151 45.6477 82.5614 46.0057 82.6183 46.4148H81.6126C81.5359 46.1165 81.3654 45.8523 81.1012 45.6222C80.8398 45.3892 80.4876 45.2727 80.0444 45.2727C79.6523 45.2727 79.3086 45.375 79.0131 45.5795C78.7205 45.7812 78.4918 46.0668 78.3271 46.4361C78.1651 46.8026 78.0842 47.233 78.0842 47.7273C78.0842 48.233 78.1637 48.6733 78.3228 49.0483C78.4847 49.4233 78.712 49.7145 79.0046 49.9219C79.3001 50.1293 79.6467 50.233 80.0444 50.233C80.3058 50.233 80.543 50.1875 80.756 50.0966C80.9691 50.0057 81.1495 49.875 81.2972 49.7045C81.445 49.5341 81.5501 49.3295 81.6126 49.0909H82.6183C82.5614 49.4773 82.4208 49.8253 82.1964 50.1349C81.9748 50.4418 81.6808 50.6861 81.3143 50.8679C80.9506 51.0469 80.5273 51.1364 80.0444 51.1364ZM86.0146 51.1534C85.5998 51.1534 85.2234 51.0753 84.8853 50.919C84.5472 50.7599 84.2788 50.5312 84.0799 50.233C83.881 49.9318 83.7816 49.5682 83.7816 49.142C83.7816 48.767 83.8555 48.4631 84.0032 48.2301C84.1509 47.9943 84.3484 47.8097 84.5955 47.6761C84.8427 47.5426 85.1154 47.4432 85.4137 47.3778C85.7148 47.3097 86.0174 47.2557 86.3214 47.2159C86.7191 47.1648 87.0415 47.1264 87.2887 47.1009C87.5387 47.0724 87.7205 47.0256 87.8342 46.9602C87.9506 46.8949 88.0089 46.7812 88.0089 46.6193V46.5852C88.0089 46.1648 87.8938 45.8381 87.6637 45.6051C87.4364 45.3722 87.0913 45.2557 86.6282 45.2557C86.1481 45.2557 85.7717 45.3608 85.4989 45.571C85.2262 45.7812 85.0344 46.0057 84.9237 46.2443L83.9691 45.9034C84.1396 45.5057 84.3668 45.196 84.6509 44.9744C84.9379 44.75 85.2504 44.5937 85.5884 44.5057C85.9293 44.4148 86.2646 44.3693 86.5941 44.3693C86.8043 44.3693 87.0458 44.3949 87.3185 44.446C87.5941 44.4943 87.8597 44.5952 88.1154 44.7486C88.3739 44.902 88.5884 45.1335 88.7589 45.4432C88.9293 45.7528 89.0146 46.1676 89.0146 46.6875V51H88.0089V50.1136H87.9577C87.8896 50.2557 87.7759 50.4077 87.6168 50.5696C87.4577 50.7315 87.2461 50.8693 86.9819 50.983C86.7177 51.0966 86.3952 51.1534 86.0146 51.1534ZM86.168 50.25C86.5657 50.25 86.9009 50.1719 87.1737 50.0156C87.4492 49.8594 87.6566 49.6577 87.7958 49.4105C87.9379 49.1634 88.0089 48.9034 88.0089 48.6307V47.7102C87.9663 47.7614 87.8725 47.8082 87.7276 47.8509C87.5856 47.8906 87.4208 47.9261 87.2333 47.9574C87.0487 47.9858 86.8683 48.0114 86.6921 48.0341C86.5188 48.054 86.3782 48.071 86.2702 48.0852C86.0089 48.1193 85.7646 48.1747 85.5373 48.2514C85.3129 48.3253 85.131 48.4375 84.9918 48.5881C84.8555 48.7358 84.7873 48.9375 84.7873 49.1932C84.7873 49.5426 84.9165 49.8068 85.1751 49.9858C85.4364 50.1619 85.7674 50.25 86.168 50.25ZM91.8558 47.0625V51H90.8501V44.4545H91.8217V45.4773H91.907C92.0604 45.1449 92.2933 44.8778 92.6058 44.6761C92.9183 44.4716 93.3217 44.3693 93.8161 44.3693C94.2592 44.3693 94.647 44.4602 94.9794 44.642C95.3118 44.821 95.5703 45.0938 95.755 45.4602C95.9396 45.8239 96.032 46.2841 96.032 46.8409V51H95.0263V46.9091C95.0263 46.3949 94.8928 45.9943 94.6257 45.7074C94.3587 45.4176 93.9922 45.2727 93.5263 45.2727C93.2053 45.2727 92.9183 45.3423 92.6655 45.4815C92.4155 45.6207 92.218 45.8239 92.0732 46.0909C91.9283 46.358 91.8558 46.6818 91.8558 47.0625ZM100.716 44.4545V45.3068H97.3242V44.4545H100.716ZM98.3129 42.8864H99.3185V49.125C99.3185 49.4091 99.3597 49.6222 99.4421 49.7642C99.5273 49.9034 99.6353 49.9972 99.766 50.0455C99.8995 50.0909 100.04 50.1136 100.188 50.1136C100.299 50.1136 100.39 50.108 100.461 50.0966C100.532 50.0824 100.588 50.071 100.631 50.0625L100.836 50.9659C100.767 50.9915 100.672 51.017 100.55 51.0426C100.428 51.071 100.273 51.0852 100.086 51.0852C99.8015 51.0852 99.5231 51.0241 99.2504 50.902C98.9805 50.7798 98.756 50.5938 98.5771 50.3438C98.4009 50.0938 98.3129 49.7784 98.3129 49.3977V42.8864ZM102.229 51V44.4545H103.235V51H102.229ZM102.74 43.3636C102.544 43.3636 102.375 43.2969 102.233 43.1634C102.094 43.0298 102.025 42.8693 102.025 42.6818C102.025 42.4943 102.094 42.3338 102.233 42.2003C102.375 42.0668 102.544 42 102.74 42C102.936 42 103.104 42.0668 103.243 42.2003C103.385 42.3338 103.456 42.4943 103.456 42.6818C103.456 42.8693 103.385 43.0298 103.243 43.1634C103.104 43.2969 102.936 43.3636 102.74 43.3636ZM106.082 47.0625V51H105.077V44.4545H106.048V45.4773H106.134C106.287 45.1449 106.52 44.8778 106.832 44.6761C107.145 44.4716 107.548 44.3693 108.043 44.3693C108.486 44.3693 108.874 44.4602 109.206 44.642C109.538 44.821 109.797 45.0938 109.982 45.4602C110.166 45.8239 110.259 46.2841 110.259 46.8409V51H109.253V46.9091C109.253 46.3949 109.119 45.9943 108.852 45.7074C108.585 45.4176 108.219 45.2727 107.753 45.2727C107.432 45.2727 107.145 45.3423 106.892 45.4815C106.642 45.6207 106.445 45.8239 106.3 46.0909C106.155 46.358 106.082 46.6818 106.082 47.0625ZM116.733 45.9205L115.829 46.1761C115.772 46.0256 115.689 45.8793 115.578 45.7372C115.47 45.5923 115.322 45.473 115.135 45.3793C114.947 45.2855 114.707 45.2386 114.414 45.2386C114.014 45.2386 113.68 45.331 113.413 45.5156C113.149 45.6974 113.017 45.929 113.017 46.2102C113.017 46.4602 113.108 46.6577 113.289 46.8026C113.471 46.9474 113.755 47.0682 114.142 47.1648L115.113 47.4034C115.699 47.5455 116.135 47.7628 116.422 48.0554C116.708 48.3452 116.852 48.7187 116.852 49.1761C116.852 49.5511 116.744 49.8864 116.528 50.1818C116.315 50.4773 116.017 50.7102 115.633 50.8807C115.25 51.0511 114.804 51.1364 114.295 51.1364C113.627 51.1364 113.075 50.9915 112.637 50.7017C112.2 50.4119 111.923 49.9886 111.806 49.4318L112.761 49.1932C112.852 49.5455 113.024 49.8097 113.277 49.9858C113.532 50.1619 113.866 50.25 114.278 50.25C114.747 50.25 115.119 50.1506 115.395 49.9517C115.673 49.75 115.812 49.5085 115.812 49.2273C115.812 49 115.733 48.8097 115.574 48.6562C115.414 48.5 115.17 48.3835 114.841 48.3068L113.75 48.0511C113.15 47.9091 112.71 47.6889 112.429 47.3906C112.15 47.0895 112.011 46.7131 112.011 46.2614C112.011 45.892 112.115 45.5653 112.322 45.2812C112.532 44.9972 112.818 44.7741 113.179 44.6122C113.542 44.4503 113.954 44.3693 114.414 44.3693C115.062 44.3693 115.571 44.5114 115.94 44.7955C116.312 45.0795 116.576 45.4545 116.733 45.9205Z" fill="white"/>
</svg>
