<svg width="66" height="118" viewBox="0 0 66 118" fill="none" xmlns="http://www.w3.org/2000/svg">
<rect x="9.5" width="15" height="15" rx="7.5" fill="#C90C0F"/>
<rect x="27.5" y="1" width="13" height="13" rx="1" fill="#359830"/>
<rect x="43.5" y="1" width="13" height="13" rx="1" fill="#359830"/>
<rect x="11.5" y="18" width="13" height="13" rx="1" fill="#359830"/>
<rect x="27.5" y="18" width="13" height="13" rx="1" fill="#359830"/>
<rect x="11.5" y="34" width="13" height="13" rx="1" fill="#359830"/>
<rect x="27.5" y="34" width="13" height="13" rx="1" fill="#359830"/>
<rect x="43.5" y="34" width="13" height="13" rx="1" fill="#359830"/>
<rect x="11.5" y="50" width="13" height="13" rx="1" fill="#359830"/>
<rect x="27.5" y="50" width="13" height="13" rx="1" fill="#359830"/>
<path d="M3.00213 76.2727V85H1.15696V76.2727H3.00213ZM11.82 76.2727V85H10.2262L6.42933 79.5071H6.36541V85H4.52024V76.2727H6.13956L9.90661 81.7614H9.98331V76.2727H11.82ZM18.0788 78.7827C18.0447 78.4389 17.8984 78.1719 17.6399 77.9815C17.3814 77.7912 17.0305 77.696 16.5874 77.696C16.2862 77.696 16.032 77.7386 15.8246 77.8239C15.6172 77.9062 15.4581 78.0213 15.3473 78.169C15.2393 78.3168 15.1854 78.4844 15.1854 78.6719C15.1797 78.8281 15.2124 78.9645 15.2834 79.081C15.3572 79.1974 15.4581 79.2983 15.5859 79.3835C15.7138 79.4659 15.8615 79.5384 16.0291 79.6009C16.1967 79.6605 16.3757 79.7116 16.5661 79.7543L17.3501 79.9418C17.7308 80.027 18.0803 80.1406 18.3984 80.2827C18.7166 80.4247 18.9922 80.5994 19.2251 80.8068C19.4581 81.0142 19.6385 81.2585 19.7663 81.5398C19.897 81.821 19.9638 82.1435 19.9666 82.5071C19.9638 83.0412 19.8274 83.5043 19.5575 83.8963C19.2905 84.2855 18.9041 84.5881 18.3984 84.804C17.8956 85.017 17.2891 85.1236 16.5788 85.1236C15.8743 85.1236 15.2607 85.0156 14.7379 84.7997C14.218 84.5838 13.8118 84.2642 13.5192 83.8409C13.2294 83.4148 13.0774 82.8878 13.0632 82.2599H14.8487C14.8686 82.5526 14.9524 82.7969 15.1001 82.9929C15.2507 83.1861 15.451 83.3324 15.701 83.4318C15.9538 83.5284 16.2393 83.5767 16.5575 83.5767C16.87 83.5767 17.1413 83.5312 17.3714 83.4403C17.6044 83.3494 17.7848 83.223 17.9126 83.0611C18.0405 82.8991 18.1044 82.7131 18.1044 82.5028C18.1044 82.3068 18.0462 82.142 17.9297 82.0085C17.8161 81.875 17.6484 81.7614 17.4268 81.6676C17.2081 81.5739 16.9396 81.4886 16.6214 81.4119L15.6712 81.1733C14.9354 80.9943 14.3544 80.7145 13.9283 80.3338C13.5021 79.9531 13.2905 79.4403 13.2933 78.7955C13.2905 78.267 13.4311 77.8054 13.7152 77.4105C14.0021 77.0156 14.3956 76.7074 14.8956 76.4858C15.3956 76.2642 15.9638 76.1534 16.6001 76.1534C17.2479 76.1534 17.8132 76.2642 18.2962 76.4858C18.782 76.7074 19.1598 77.0156 19.4297 77.4105C19.6996 77.8054 19.8388 78.2628 19.8473 78.7827H18.0788ZM20.8754 77.794V76.2727H28.043V77.794H25.3711V85H23.5472V77.794H20.8754ZM31.0685 76.2727V85H29.2234V76.2727H31.0685ZM32.2543 77.794V76.2727H39.4219V77.794H36.75V85H34.9261V77.794H32.2543ZM45.9929 76.2727H47.8381V81.9403C47.8381 82.5767 47.6861 83.1335 47.3821 83.6108C47.081 84.0881 46.6591 84.4602 46.1165 84.7273C45.5739 84.9915 44.9418 85.1236 44.2202 85.1236C43.4957 85.1236 42.8622 84.9915 42.3196 84.7273C41.777 84.4602 41.3551 84.0881 41.054 83.6108C40.7528 83.1335 40.6023 82.5767 40.6023 81.9403V76.2727H42.4474V81.7827C42.4474 82.1151 42.5199 82.4105 42.6648 82.669C42.8125 82.9276 43.0199 83.1307 43.2869 83.2784C43.554 83.4261 43.8651 83.5 44.2202 83.5C44.5781 83.5 44.8892 83.4261 45.1534 83.2784C45.4205 83.1307 45.6264 82.9276 45.7713 82.669C45.919 82.4105 45.9929 82.1151 45.9929 81.7827V76.2727ZM49.0238 77.794V76.2727H56.1914V77.794H53.5195V85H51.6957V77.794H49.0238ZM64.9933 80.6364C64.9933 81.5881 64.8129 82.3977 64.4521 83.0653C64.0941 83.733 63.6055 84.2429 62.9862 84.5952C62.3697 84.9446 61.6765 85.1193 60.9066 85.1193C60.131 85.1193 59.435 84.9432 58.8185 84.5909C58.2021 84.2386 57.7148 83.7287 57.3569 83.0611C56.9989 82.3935 56.82 81.5852 56.82 80.6364C56.82 79.6847 56.9989 78.875 57.3569 78.2074C57.7148 77.5398 58.2021 77.0312 58.8185 76.6818C59.435 76.3295 60.131 76.1534 60.9066 76.1534C61.6765 76.1534 62.3697 76.3295 62.9862 76.6818C63.6055 77.0312 64.0941 77.5398 64.4521 78.2074C64.8129 78.875 64.9933 79.6847 64.9933 80.6364ZM63.1225 80.6364C63.1225 80.0199 63.0302 79.5 62.8455 79.0767C62.6637 78.6534 62.4066 78.3324 62.0742 78.1136C61.7418 77.8949 61.3526 77.7855 60.9066 77.7855C60.4606 77.7855 60.0714 77.8949 59.739 78.1136C59.4066 78.3324 59.1481 78.6534 58.9634 79.0767C58.7816 79.5 58.6907 80.0199 58.6907 80.6364C58.6907 81.2528 58.7816 81.7727 58.9634 82.196C59.1481 82.6193 59.4066 82.9403 59.739 83.1591C60.0714 83.3778 60.4606 83.4872 60.9066 83.4872C61.3526 83.4872 61.7418 83.3778 62.0742 83.1591C62.4066 82.9403 62.6637 82.6193 62.8455 82.196C63.0302 81.7727 63.1225 81.2528 63.1225 80.6364ZM6.70579 100V91.2727H12.4842V92.794H8.55096V94.8736H12.1007V96.3949H8.55096V100H6.70579ZM13.7253 100V91.2727H19.606V92.794H15.5705V94.8736H19.3034V96.3949H15.5705V98.4787H19.623V100H13.7253ZM24.1667 100H21.073V91.2727H24.1923C25.0701 91.2727 25.8258 91.4474 26.4593 91.7969C27.0929 92.1435 27.5801 92.642 27.921 93.2926C28.2647 93.9432 28.4366 94.7216 28.4366 95.6278C28.4366 96.5369 28.2647 97.3182 27.921 97.9716C27.5801 98.625 27.09 99.1264 26.4508 99.4759C25.8145 99.8253 25.0531 100 24.1667 100ZM22.9181 98.419H24.09C24.6355 98.419 25.0943 98.3224 25.4664 98.1293C25.8414 97.9332 26.1227 97.6307 26.3102 97.2216C26.5005 96.8097 26.5957 96.2784 26.5957 95.6278C26.5957 94.983 26.5005 94.456 26.3102 94.0469C26.1227 93.6378 25.8429 93.3366 25.4707 93.1435C25.0985 92.9503 24.6397 92.8537 24.0943 92.8537H22.9181V98.419ZM29.8034 100V91.2727H35.6841V92.794H31.6486V94.8736H35.3816V96.3949H31.6486V98.4787H35.7012V100H29.8034ZM37.1511 100V91.2727H40.5943C41.2534 91.2727 41.8159 91.3906 42.2818 91.6264C42.7505 91.8594 43.1071 92.1903 43.3514 92.6193C43.5985 93.0455 43.7221 93.5469 43.7221 94.1236C43.7221 94.7031 43.5971 95.2017 43.3471 95.6193C43.0971 96.0341 42.7349 96.3523 42.2605 96.5739C41.7889 96.7955 41.2179 96.9062 40.5474 96.9062H38.242V95.4233H40.2491C40.6014 95.4233 40.894 95.375 41.127 95.2784C41.3599 95.1818 41.5332 95.0369 41.6468 94.8438C41.7633 94.6506 41.8216 94.4105 41.8216 94.1236C41.8216 93.8338 41.7633 93.5895 41.6468 93.3906C41.5332 93.1918 41.3585 93.0412 41.1227 92.9389C40.8897 92.8338 40.5957 92.7812 40.2406 92.7812H38.9963V100H37.1511ZM41.8642 96.0284L44.0332 100H41.9963L39.8741 96.0284H41.8642ZM46.5304 100H44.5531L47.5659 91.2727H49.9437L52.9522 100H50.975L48.7889 93.267H48.7207L46.5304 100ZM46.4068 96.5696H51.0772V98.0099H46.4068V96.5696ZM54.0027 100V91.2727H55.8478V98.4787H59.5893V100H54.0027ZM6.13423 107.21V106.273H12.6797V107.21H9.93537V115H8.87855V107.21H6.13423ZM15.8842 115.136C15.2933 115.136 14.7749 114.996 14.3288 114.714C13.8857 114.433 13.5391 114.04 13.2891 113.534C13.0419 113.028 12.9183 112.437 12.9183 111.761C12.9183 111.08 13.0419 110.484 13.2891 109.976C13.5391 109.467 13.8857 109.072 14.3288 108.791C14.7749 108.51 15.2933 108.369 15.8842 108.369C16.4751 108.369 16.9922 108.51 17.4354 108.791C17.8814 109.072 18.228 109.467 18.4751 109.976C18.7251 110.484 18.8501 111.08 18.8501 111.761C18.8501 112.437 18.7251 113.028 18.4751 113.534C18.228 114.04 17.8814 114.433 17.4354 114.714C16.9922 114.996 16.4751 115.136 15.8842 115.136ZM15.8842 114.233C16.3331 114.233 16.7024 114.118 16.9922 113.888C17.282 113.658 17.4964 113.355 17.6357 112.98C17.7749 112.605 17.8445 112.199 17.8445 111.761C17.8445 111.324 17.7749 110.916 17.6357 110.538C17.4964 110.161 17.282 109.855 16.9922 109.622C16.7024 109.389 16.3331 109.273 15.8842 109.273C15.4354 109.273 15.0661 109.389 14.7763 109.622C14.4865 109.855 14.272 110.161 14.1328 110.538C13.9936 110.916 13.924 111.324 13.924 111.761C13.924 112.199 13.9936 112.605 14.1328 112.98C14.272 113.355 14.4865 113.658 14.7763 113.888C15.0661 114.118 15.4354 114.233 15.8842 114.233ZM23.0444 115.136C22.4308 115.136 21.9023 114.991 21.4592 114.702C21.016 114.412 20.6751 114.013 20.4364 113.504C20.1978 112.996 20.0785 112.415 20.0785 111.761C20.0785 111.097 20.2006 110.51 20.445 110.001C20.6921 109.49 21.0359 109.091 21.4762 108.804C21.9194 108.514 22.4364 108.369 23.0273 108.369C23.4876 108.369 23.9023 108.455 24.2717 108.625C24.641 108.795 24.9435 109.034 25.1793 109.341C25.4151 109.648 25.5614 110.006 25.6183 110.415H24.6126C24.5359 110.116 24.3654 109.852 24.1012 109.622C23.8398 109.389 23.4876 109.273 23.0444 109.273C22.6523 109.273 22.3086 109.375 22.0131 109.58C21.7205 109.781 21.4918 110.067 21.3271 110.436C21.1651 110.803 21.0842 111.233 21.0842 111.727C21.0842 112.233 21.1637 112.673 21.3228 113.048C21.4847 113.423 21.712 113.714 22.0046 113.922C22.3001 114.129 22.6467 114.233 23.0444 114.233C23.3058 114.233 23.543 114.188 23.756 114.097C23.9691 114.006 24.1495 113.875 24.2972 113.705C24.445 113.534 24.5501 113.33 24.6126 113.091H25.6183C25.5614 113.477 25.4208 113.825 25.1964 114.135C24.9748 114.442 24.6808 114.686 24.3143 114.868C23.9506 115.047 23.5273 115.136 23.0444 115.136ZM29.0146 115.153C28.5998 115.153 28.2234 115.075 27.8853 114.919C27.5472 114.76 27.2788 114.531 27.0799 114.233C26.881 113.932 26.7816 113.568 26.7816 113.142C26.7816 112.767 26.8555 112.463 27.0032 112.23C27.1509 111.994 27.3484 111.81 27.5955 111.676C27.8427 111.543 28.1154 111.443 28.4137 111.378C28.7148 111.31 29.0174 111.256 29.3214 111.216C29.7191 111.165 30.0415 111.126 30.2887 111.101C30.5387 111.072 30.7205 111.026 30.8342 110.96C30.9506 110.895 31.0089 110.781 31.0089 110.619V110.585C31.0089 110.165 30.8938 109.838 30.6637 109.605C30.4364 109.372 30.0913 109.256 29.6282 109.256C29.1481 109.256 28.7717 109.361 28.4989 109.571C28.2262 109.781 28.0344 110.006 27.9237 110.244L26.9691 109.903C27.1396 109.506 27.3668 109.196 27.6509 108.974C27.9379 108.75 28.2504 108.594 28.5884 108.506C28.9293 108.415 29.2646 108.369 29.5941 108.369C29.8043 108.369 30.0458 108.395 30.3185 108.446C30.5941 108.494 30.8597 108.595 31.1154 108.749C31.3739 108.902 31.5884 109.134 31.7589 109.443C31.9293 109.753 32.0146 110.168 32.0146 110.688V115H31.0089V114.114H30.9577C30.8896 114.256 30.7759 114.408 30.6168 114.57C30.4577 114.732 30.2461 114.869 29.9819 114.983C29.7177 115.097 29.3952 115.153 29.0146 115.153ZM29.168 114.25C29.5657 114.25 29.9009 114.172 30.1737 114.016C30.4492 113.859 30.6566 113.658 30.7958 113.411C30.9379 113.163 31.0089 112.903 31.0089 112.631V111.71C30.9663 111.761 30.8725 111.808 30.7276 111.851C30.5856 111.891 30.4208 111.926 30.2333 111.957C30.0487 111.986 29.8683 112.011 29.6921 112.034C29.5188 112.054 29.3782 112.071 29.2702 112.085C29.0089 112.119 28.7646 112.175 28.5373 112.251C28.3129 112.325 28.131 112.437 27.9918 112.588C27.8555 112.736 27.7873 112.937 27.7873 113.193C27.7873 113.543 27.9165 113.807 28.1751 113.986C28.4364 114.162 28.7674 114.25 29.168 114.25ZM34.8558 111.062V115H33.8501V108.455H34.8217V109.477H34.907C35.0604 109.145 35.2933 108.878 35.6058 108.676C35.9183 108.472 36.3217 108.369 36.8161 108.369C37.2592 108.369 37.647 108.46 37.9794 108.642C38.3118 108.821 38.5703 109.094 38.755 109.46C38.9396 109.824 39.032 110.284 39.032 110.841V115H38.0263V110.909C38.0263 110.395 37.8928 109.994 37.6257 109.707C37.3587 109.418 36.9922 109.273 36.5263 109.273C36.2053 109.273 35.9183 109.342 35.6655 109.482C35.4155 109.621 35.218 109.824 35.0732 110.091C34.9283 110.358 34.8558 110.682 34.8558 111.062ZM43.7163 108.455V109.307H40.3242V108.455H43.7163ZM41.3129 106.886H42.3185V113.125C42.3185 113.409 42.3597 113.622 42.4421 113.764C42.5273 113.903 42.6353 113.997 42.766 114.045C42.8995 114.091 43.0401 114.114 43.1879 114.114C43.2987 114.114 43.3896 114.108 43.4606 114.097C43.5316 114.082 43.5884 114.071 43.631 114.062L43.8356 114.966C43.7674 114.991 43.6722 115.017 43.5501 115.043C43.4279 115.071 43.2731 115.085 43.0856 115.085C42.8015 115.085 42.5231 115.024 42.2504 114.902C41.9805 114.78 41.756 114.594 41.5771 114.344C41.4009 114.094 41.3129 113.778 41.3129 113.398V106.886ZM45.229 115V108.455H46.2347V115H45.229ZM45.7404 107.364C45.5444 107.364 45.3754 107.297 45.2333 107.163C45.0941 107.03 45.0245 106.869 45.0245 106.682C45.0245 106.494 45.0941 106.334 45.2333 106.2C45.3754 106.067 45.5444 106 45.7404 106C45.9364 106 46.104 106.067 46.2433 106.2C46.3853 106.334 46.4563 106.494 46.4563 106.682C46.4563 106.869 46.3853 107.03 46.2433 107.163C46.104 107.297 45.9364 107.364 45.7404 107.364ZM49.0824 111.062V115H48.0767V108.455H49.0483V109.477H49.1335C49.2869 109.145 49.5199 108.878 49.8324 108.676C50.1449 108.472 50.5483 108.369 51.0426 108.369C51.4858 108.369 51.8736 108.46 52.206 108.642C52.5384 108.821 52.7969 109.094 52.9815 109.46C53.1662 109.824 53.2585 110.284 53.2585 110.841V115H52.2528V110.909C52.2528 110.395 52.1193 109.994 51.8523 109.707C51.5852 109.418 51.2188 109.273 50.7528 109.273C50.4318 109.273 50.1449 109.342 49.892 109.482C49.642 109.621 49.4446 109.824 49.2997 110.091C49.1548 110.358 49.0824 110.682 49.0824 111.062ZM59.7326 109.92L58.8292 110.176C58.7724 110.026 58.6886 109.879 58.5778 109.737C58.4698 109.592 58.3221 109.473 58.1346 109.379C57.9471 109.286 57.707 109.239 57.4144 109.239C57.0138 109.239 56.68 109.331 56.413 109.516C56.1488 109.697 56.0167 109.929 56.0167 110.21C56.0167 110.46 56.1076 110.658 56.2894 110.803C56.4712 110.947 56.7553 111.068 57.1417 111.165L58.1133 111.403C58.6985 111.545 59.1346 111.763 59.4215 112.055C59.7085 112.345 59.8519 112.719 59.8519 113.176C59.8519 113.551 59.744 113.886 59.5281 114.182C59.315 114.477 59.0167 114.71 58.6332 114.881C58.2496 115.051 57.8036 115.136 57.2951 115.136C56.6275 115.136 56.0749 114.991 55.6374 114.702C55.1999 114.412 54.9229 113.989 54.8065 113.432L55.761 113.193C55.8519 113.545 56.0238 113.81 56.2766 113.986C56.5323 114.162 56.8661 114.25 57.2781 114.25C57.7468 114.25 58.119 114.151 58.3945 113.952C58.6729 113.75 58.8121 113.509 58.8121 113.227C58.8121 113 58.7326 112.81 58.5735 112.656C58.4144 112.5 58.1701 112.384 57.8406 112.307L56.7496 112.051C56.1502 111.909 55.7099 111.689 55.4286 111.391C55.1502 111.089 55.011 110.713 55.011 110.261C55.011 109.892 55.1147 109.565 55.3221 109.281C55.5323 108.997 55.8178 108.774 56.1786 108.612C56.5423 108.45 56.9542 108.369 57.4144 108.369C58.0621 108.369 58.5707 108.511 58.94 108.795C59.3121 109.08 59.5763 109.455 59.7326 109.92Z" fill="white"/>
</svg>
